<mxfile host="app.diagrams.net" modified="2021-02-03T09:37:04.818Z" agent="5.0 (Windows)" etag="aIX8wS1hFhS6rvahZqir" version="14.2.9" type="github">
  <diagram id="XufAEa3ROOlBY7IFaMoH" name="Page-1">
    <mxGraphModel dx="981" dy="526" grid="1" gridSize="10" guides="1" tooltips="1" connect="1" arrows="1" fold="1" page="1" pageScale="1" pageWidth="827" pageHeight="1169" math="0" shadow="0">
      <root>
        <mxCell id="0" />
        <mxCell id="1" parent="0" />
        <mxCell id="vEdVGXSmb0X4appwq7l7-1" value="" style="endArrow=classic;html=1;" parent="1" edge="1">
          <mxGeometry width="50" height="50" relative="1" as="geometry">
            <mxPoint x="180" y="150" as="sourcePoint" />
            <mxPoint x="180" y="580" as="targetPoint" />
          </mxGeometry>
        </mxCell>
        <mxCell id="vEdVGXSmb0X4appwq7l7-2" value="" style="endArrow=classic;html=1;" parent="1" edge="1">
          <mxGeometry width="50" height="50" relative="1" as="geometry">
            <mxPoint x="660" y="150" as="sourcePoint" />
            <mxPoint x="660" y="580" as="targetPoint" />
          </mxGeometry>
        </mxCell>
        <mxCell id="vEdVGXSmb0X4appwq7l7-4" value="Датчик" style="text;html=1;strokeColor=none;fillColor=none;align=center;verticalAlign=middle;whiteSpace=wrap;rounded=0;" parent="1" vertex="1">
          <mxGeometry x="160" y="120" width="40" height="20" as="geometry" />
        </mxCell>
        <mxCell id="vEdVGXSmb0X4appwq7l7-5" value="Сервер LoRaWAN" style="text;html=1;strokeColor=none;fillColor=none;align=center;verticalAlign=middle;whiteSpace=wrap;rounded=0;" parent="1" vertex="1">
          <mxGeometry x="600" y="120" width="140" height="20" as="geometry" />
        </mxCell>
        <mxCell id="vEdVGXSmb0X4appwq7l7-6" value="" style="endArrow=classic;html=1;dashed=1;" parent="1" edge="1">
          <mxGeometry width="50" height="50" relative="1" as="geometry">
            <mxPoint x="180" y="180" as="sourcePoint" />
            <mxPoint x="660" y="180" as="targetPoint" />
          </mxGeometry>
        </mxCell>
        <mxCell id="vEdVGXSmb0X4appwq7l7-7" value="&lt;div style=&quot;font-size: 10px&quot;&gt;&lt;b&gt;Join-Request&lt;/b&gt; (MAC команда, использует базовый план RU868, &lt;br style=&quot;font-size: 10px&quot;&gt;&lt;/div&gt;&lt;div style=&quot;font-size: 10px&quot;&gt;запрашивает подключение к сети, передает свои идентификаторы)&lt;/div&gt;" style="edgeLabel;html=1;align=center;verticalAlign=middle;resizable=0;points=[];fontFamily=Georgia;fontSize=10;" parent="vEdVGXSmb0X4appwq7l7-6" vertex="1" connectable="0">
          <mxGeometry x="0.1077" y="-1" relative="1" as="geometry">
            <mxPoint as="offset" />
          </mxGeometry>
        </mxCell>
        <mxCell id="vEdVGXSmb0X4appwq7l7-8" value="" style="endArrow=none;html=1;dashed=1;startArrow=classic;startFill=1;endFill=0;" parent="1" edge="1">
          <mxGeometry width="50" height="50" relative="1" as="geometry">
            <mxPoint x="180" y="230" as="sourcePoint" />
            <mxPoint x="660" y="230" as="targetPoint" />
          </mxGeometry>
        </mxCell>
        <mxCell id="vEdVGXSmb0X4appwq7l7-9" value="&lt;div style=&quot;font-size: 10px&quot;&gt;&lt;b&gt;Join-Accept &lt;/b&gt;(MAC команда, передает сессионные ключи,&lt;br style=&quot;font-size: 10px&quot;&gt;&lt;/div&gt;&lt;div style=&quot;font-size: 10px&quot;&gt;содержитCFList - дополнительный частотный план)&lt;/div&gt;" style="edgeLabel;html=1;align=center;verticalAlign=middle;resizable=0;points=[];fontFamily=Georgia;fontSize=10;" parent="vEdVGXSmb0X4appwq7l7-8" vertex="1" connectable="0">
          <mxGeometry x="0.1077" y="-1" relative="1" as="geometry">
            <mxPoint as="offset" />
          </mxGeometry>
        </mxCell>
        <mxCell id="vEdVGXSmb0X4appwq7l7-10" value="&lt;font style=&quot;font-size: 9px&quot; face=&quot;Georgia&quot;&gt;Применяет настройки сети&lt;/font&gt;" style="rounded=1;whiteSpace=wrap;html=1;fontFamily=Georgia;" parent="1" vertex="1">
          <mxGeometry x="90" y="240" width="120" height="20" as="geometry" />
        </mxCell>
        <mxCell id="vEdVGXSmb0X4appwq7l7-11" value="&lt;font style=&quot;font-size: 9px&quot;&gt;Создает сессию (ключи) для датчика&lt;br&gt;&lt;/font&gt;" style="rounded=1;whiteSpace=wrap;html=1;fontFamily=Georgia;" parent="1" vertex="1">
          <mxGeometry x="630" y="370" width="140" height="30" as="geometry" />
        </mxCell>
        <mxCell id="vEdVGXSmb0X4appwq7l7-12" value="" style="endArrow=classic;html=1;dashed=1;" parent="1" edge="1">
          <mxGeometry width="50" height="50" relative="1" as="geometry">
            <mxPoint x="180" y="280" as="sourcePoint" />
            <mxPoint x="660" y="280" as="targetPoint" />
          </mxGeometry>
        </mxCell>
        <mxCell id="vEdVGXSmb0X4appwq7l7-13" value="&lt;div style=&quot;font-size: 10px&quot;&gt;&lt;b&gt;Unconfirmed Data Up&lt;/b&gt; &lt;br&gt;&lt;/div&gt;&lt;div style=&quot;font-size: 10px&quot;&gt;(передача данных, использует настройки сети, полученные в Join-Accept)&lt;/div&gt;" style="edgeLabel;html=1;align=center;verticalAlign=middle;resizable=0;points=[];fontFamily=Georgia;fontSize=10;" parent="vEdVGXSmb0X4appwq7l7-12" vertex="1" connectable="0">
          <mxGeometry x="0.1077" y="-1" relative="1" as="geometry">
            <mxPoint as="offset" />
          </mxGeometry>
        </mxCell>
        <mxCell id="mIrT85t2477WKxjw4_xu-1" value="&lt;font style=&quot;font-size: 9px&quot; face=&quot;Georgia&quot;&gt;Применяет настройки сети&lt;/font&gt;" style="rounded=1;whiteSpace=wrap;html=1;fontFamily=Georgia;" vertex="1" parent="1">
          <mxGeometry x="90" y="240" width="120" height="20" as="geometry" />
        </mxCell>
        <mxCell id="mIrT85t2477WKxjw4_xu-3" value="&lt;font style=&quot;font-size: 9px&quot;&gt;Сервер анализирует оптимальность настроек скорости и мощности&lt;br&gt;&lt;/font&gt;" style="rounded=1;whiteSpace=wrap;html=1;fontFamily=Georgia;" vertex="1" parent="1">
          <mxGeometry x="630" y="460" width="140" height="40" as="geometry" />
        </mxCell>
        <mxCell id="mIrT85t2477WKxjw4_xu-4" value="" style="endArrow=none;html=1;dashed=1;startArrow=classic;startFill=1;endFill=0;" edge="1" parent="1">
          <mxGeometry width="50" height="50" relative="1" as="geometry">
            <mxPoint x="180" y="510" as="sourcePoint" />
            <mxPoint x="660" y="510" as="targetPoint" />
          </mxGeometry>
        </mxCell>
        <mxCell id="mIrT85t2477WKxjw4_xu-5" value="&lt;div style=&quot;font-size: 10px&quot;&gt;&lt;b&gt;&lt;/b&gt;&lt;div style=&quot;font-size: 9px&quot;&gt;&lt;font style=&quot;font-size: 9px&quot;&gt;&lt;b&gt;LinkADRReq&lt;/b&gt;&lt;br&gt;&lt;/font&gt;&lt;/div&gt;&lt;b&gt; &lt;/b&gt;(MAC команда,&amp;nbsp;&lt;font style=&quot;font-size: 9px&quot;&gt; при необходимости регулировки радиопраметров&lt;/font&gt;)&lt;/div&gt;" style="edgeLabel;html=1;align=center;verticalAlign=middle;resizable=0;points=[];fontFamily=Georgia;fontSize=10;" vertex="1" connectable="0" parent="mIrT85t2477WKxjw4_xu-4">
          <mxGeometry x="0.1077" y="-1" relative="1" as="geometry">
            <mxPoint as="offset" />
          </mxGeometry>
        </mxCell>
        <mxCell id="mIrT85t2477WKxjw4_xu-6" value="&lt;font style=&quot;font-size: 9px&quot;&gt;При отсутствии ответа &lt;b&gt;повторяет процедуру подключения, до 7 раз&lt;/b&gt;&lt;br&gt;&lt;/font&gt;" style="rounded=1;whiteSpace=wrap;html=1;fontFamily=Georgia;" vertex="1" parent="1">
          <mxGeometry x="50" y="310" width="170" height="30" as="geometry" />
        </mxCell>
        <mxCell id="mIrT85t2477WKxjw4_xu-7" value="" style="endArrow=classic;html=1;dashed=1;" edge="1" parent="1">
          <mxGeometry width="50" height="50" relative="1" as="geometry">
            <mxPoint x="180" y="360" as="sourcePoint" />
            <mxPoint x="660" y="360" as="targetPoint" />
          </mxGeometry>
        </mxCell>
        <mxCell id="mIrT85t2477WKxjw4_xu-8" value="&lt;div style=&quot;font-size: 10px&quot;&gt;&lt;b&gt;Join-Request&lt;/b&gt; (MAC команда, использует базовый план RU868, &lt;br style=&quot;font-size: 10px&quot;&gt;&lt;/div&gt;&lt;div style=&quot;font-size: 10px&quot;&gt;запрашивает подключение к сети, передает свои идентификаторы)&lt;/div&gt;" style="edgeLabel;html=1;align=center;verticalAlign=middle;resizable=0;points=[];fontFamily=Georgia;fontSize=10;" vertex="1" connectable="0" parent="mIrT85t2477WKxjw4_xu-7">
          <mxGeometry x="0.1077" y="-1" relative="1" as="geometry">
            <mxPoint as="offset" />
          </mxGeometry>
        </mxCell>
        <mxCell id="mIrT85t2477WKxjw4_xu-9" value="" style="endArrow=none;html=1;dashed=1;startArrow=classic;startFill=1;endFill=0;" edge="1" parent="1">
          <mxGeometry width="50" height="50" relative="1" as="geometry">
            <mxPoint x="180" y="410" as="sourcePoint" />
            <mxPoint x="660" y="410" as="targetPoint" />
          </mxGeometry>
        </mxCell>
        <mxCell id="mIrT85t2477WKxjw4_xu-10" value="&lt;div style=&quot;font-size: 10px&quot;&gt;&lt;b&gt;Join-Accept &lt;/b&gt;(MAC команда, передает сессионные ключи,&lt;br style=&quot;font-size: 10px&quot;&gt;&lt;/div&gt;&lt;div style=&quot;font-size: 10px&quot;&gt;содержитCFList - дополнительный частотный план)&lt;/div&gt;" style="edgeLabel;html=1;align=center;verticalAlign=middle;resizable=0;points=[];fontFamily=Georgia;fontSize=10;" vertex="1" connectable="0" parent="mIrT85t2477WKxjw4_xu-9">
          <mxGeometry x="0.1077" y="-1" relative="1" as="geometry">
            <mxPoint as="offset" />
          </mxGeometry>
        </mxCell>
        <mxCell id="mIrT85t2477WKxjw4_xu-11" value="&lt;font style=&quot;font-size: 9px&quot;&gt;Создает сессию (ключи) для датчика&lt;br&gt;&lt;/font&gt;" style="rounded=1;whiteSpace=wrap;html=1;fontFamily=Georgia;" vertex="1" parent="1">
          <mxGeometry x="630" y="190" width="140" height="30" as="geometry" />
        </mxCell>
        <mxCell id="mIrT85t2477WKxjw4_xu-12" value="&lt;font style=&quot;font-size: 9px&quot; face=&quot;Georgia&quot;&gt;Применяет настройки сети&lt;/font&gt;" style="rounded=1;whiteSpace=wrap;html=1;fontFamily=Georgia;" vertex="1" parent="1">
          <mxGeometry x="90" y="420" width="120" height="20" as="geometry" />
        </mxCell>
        <mxCell id="mIrT85t2477WKxjw4_xu-13" value="" style="endArrow=classic;html=1;dashed=1;" edge="1" parent="1">
          <mxGeometry width="50" height="50" relative="1" as="geometry">
            <mxPoint x="180" y="449.6" as="sourcePoint" />
            <mxPoint x="660" y="449.6" as="targetPoint" />
          </mxGeometry>
        </mxCell>
        <mxCell id="mIrT85t2477WKxjw4_xu-14" value="&lt;div style=&quot;font-size: 10px&quot;&gt;&lt;b&gt;Unconfirmed Data Up&lt;/b&gt; &lt;br&gt;&lt;/div&gt;&lt;div style=&quot;font-size: 10px&quot;&gt;(передача данных, использует настройки сети, полученные в Join-Accept)&lt;/div&gt;" style="edgeLabel;html=1;align=center;verticalAlign=middle;resizable=0;points=[];fontFamily=Georgia;fontSize=10;" vertex="1" connectable="0" parent="mIrT85t2477WKxjw4_xu-13">
          <mxGeometry x="0.1077" y="-1" relative="1" as="geometry">
            <mxPoint as="offset" />
          </mxGeometry>
        </mxCell>
        <mxCell id="mIrT85t2477WKxjw4_xu-15" value="&lt;font style=&quot;font-size: 9px&quot; face=&quot;Georgia&quot;&gt;Принимает за ожидаемый ответ и начинает периодическую отправку&lt;br&gt;&lt;/font&gt;" style="rounded=1;whiteSpace=wrap;html=1;fontFamily=Georgia;" vertex="1" parent="1">
          <mxGeometry x="90" y="520" width="150" height="40" as="geometry" />
        </mxCell>
      </root>
    </mxGraphModel>
  </diagram>
</mxfile>
